# xmcd
#
# Track frame offsets:
#	150
#	11615
#	24110
#	35399
#	46478
#	58012
#	71788
#	83604
#	97729
#	109759
#	123122
#	134151
#
# Disc length: 1953 seconds
#
# Revision: 1
# Processed by: cddbd v1.5.1PL0 Copyright (c) Steve Scherf et al.
# Submitted via: audiograbber 1.83.01
#
DISCID=94079f0c
DTITLE=Ray Charles - If I Give You My Love
DYEAR=1900
DGENRE=
TTITLE0=What Have I Done
TTITLE1=I'm Glad For Your Sake
TTITLE2=Let's Have A Ball
TTITLE3=A Sentimental Blues
TTITLE4=If I Give You My Love
TTITLE5=This Love Is Mine
TTITLE6=Can't You See
TTITLE7=Baby, Let Me Hold Your Hand
TTITLE8=See See Rider
TTITLE9=Alone In The City
TTITLE10=I'll Do Anything But Work
TTITLE11=Going Down Slow
EXTD=
EXTT0=
EXTT1=
EXTT2=
EXTT3=
EXTT4=
EXTT5=
EXTT6=
EXTT7=
EXTT8=
EXTT9=
EXTT10=
EXTT11=
PLAYORDER=
